<?xml version="1.0" encoding="UTF-8"?>
<svg width="208px" height="26px" viewBox="0 0 208 26" version="1.1" xmlns="http://www.w3.org/2000/svg" xmlns:xlink="http://www.w3.org/1999/xlink">
    <!-- Generator: sketchtool 54.1 (76490) - https://sketchapp.com -->
    <title>960E59DD-6FBF-4FB5-92AA-9ABC49A220DA</title>
    <desc>Created with sketchtool.</desc>
    <g id="Page-1" stroke="none" stroke-width="1" fill="none" fill-rule="evenodd">
        <g id="Homepage" transform="translate(-736.000000, -28.000000)" fill="#024FA1">
            <g id="Top-Nav">
                <g id="logo">
                    <g transform="translate(736.000000, 28.000000)">
                        <path d="M28.2568248,1.99426686 C32.5792727,2.843672 37.012585,7.49698857 37.012585,13.0735429 C36.6431609,17.0989371 34.9067561,21.27216 28.0720756,23.5987886 C25.1535135,24.5590057 20.0551635,25.0021943 14.4027144,19.57332 C18.9837964,24.74368 22.3087621,25.0021943 26.1879011,25.0021943 C20.4615672,26.1470114 15.5109868,26.5902 9.30436441,20.1641886 C12.2968855,24.2265771 14.5504841,24.92828 17.7645854,25.9992571 C13.5899071,26.0362514 8.23299731,24.6328457 3.83660511,20.8289714 C0.807171304,18.0960743 -0.448939054,14.7723086 0.142169999,11.1531086 C1.50911428,11.1531086 2.83910798,11.1531086 4.16910168,11.1531086 C6.57048476,2.10505657 14.4396197,0.147723086 20.4245877,0 C16.5454486,0.923267429 13.220483,2.62208514 10.8191147,6.16744514 C16.9148728,0.480101143 21.5699138,-0.664754629 27.1484781,1.18178914 C23.0845899,0.664754629 17.9123551,2.43743314 14.9568135,6.72140857 C20.018184,2.28970857 23.6757428,1.10792686 28.2568248,1.99426686 Z M20.8309913,5.65041657 C19.7965295,6.20438 13.9224259,11.4854629 21.1635102,11.8917314 L29.5129411,12.1871657 L30.4734438,12.7041943 L36.6801405,12.9257886 C36.8648154,7.31229943 31.6926548,4.06238857 26.8159593,4.09932343 C24.8948795,4.13625086 22.7520711,4.57942457 20.8309913,5.65041657 Z M27.4071121,21.5675943 C33.6507141,20.7920514 36.0151028,17.1728514 36.6801405,13.0365486 C31.0645967,13.0365486 25.7445922,13.4797371 20.1290483,13.7013314 C17.9863141,14.1076 16.3237942,16.02796 19.2793357,18.6500971 C22.197972,20.8658914 24.6362455,21.6414343 27.4071121,21.5675943 Z" id="Combined-Shape" fill-rule="nonzero"></path>
                        <path d="M47.1753946,14.4397314 L46.4734516,11.6329943 C46.8798405,11.7068343 47.1753946,11.7437543 47.3231717,11.7806743 C47.4709488,11.8175943 47.7295605,11.8175943 48.0989995,11.8175943 C50.7959293,11.8175943 52.1259304,10.7097046 52.1259304,8.49385829 C52.1259304,7.60751829 51.8672964,7.01662743 51.3870822,6.647316 C50.9067937,6.27800457 50.1309659,6.13028743 49.0595245,6.13028743 C48.5792806,6.13028743 47.9512298,6.16721486 47.2492869,6.20414971 C46.5104015,6.24107714 46.1040126,6.27800457 45.993178,6.27800457 C45.993178,6.86890286 45.9562281,8.49385829 45.8454009,11.1528857 C45.7345662,13.8118686 45.660674,15.6214686 45.6237316,16.5816857 C45.5128969,19.6100171 45.4759545,21.6042914 45.4759545,22.5645086 L41.3012476,22.5645086 C41.4859689,21.0872629 41.6337445,18.0958514 41.8184663,13.6272686 C42.003188,9.15861143 42.1140241,5.72404857 42.1140241,3.32354286 L51.2762178,3.32354286 C53.0126226,3.32354286 54.3056442,3.91443594 55.1923363,5.059288 C55.8942793,5.98256286 56.2267239,7.09048971 56.2267239,8.38306114 C56.2267239,10.3404006 55.5617605,11.8545886 54.1947798,13.0363257 C52.9387378,14.1073771 51.2762178,14.6244057 49.2812532,14.6244057 C48.5792806,14.6244057 47.8773376,14.5874114 47.1753946,14.4397314 Z M65.8299691,20.16404 L65.0910466,22.6384229 C64.2044139,22.8230971 63.3177514,22.8969371 62.4310889,22.8969371 C60.3991523,22.8969371 58.9583239,22.3799086 58.1086038,21.3458514 C57.5544394,20.6810686 57.2588838,19.8316857 57.2588838,18.8345486 C57.2588838,17.1727029 58.1455537,15.9170514 59.8819362,15.1045514 C60.2883176,14.9198994 61.9138655,14.4397983 64.7955073,13.664248 C66.5688174,13.1841543 67.4555096,12.5563286 67.4555096,11.7438509 C67.4555096,11.1529526 67.1968756,10.7467137 66.6796818,10.4881994 C66.162488,10.26662 65.5344298,10.1558229 64.8324869,10.1558229 C63.9458096,10.1558229 63.0221972,10.26662 62.06165,10.4881994 C61.1010952,10.7097863 60.1405405,11.0052354 59.1799858,11.3745394 L59.623317,8.678592 C60.6208142,8.45700737 61.6552611,8.235422 62.7266431,8.08769891 C63.7980325,7.93997575 64.8324869,7.866114 65.8299691,7.866114 C67.4555096,7.866114 68.7116259,8.08769966 69.598318,8.53086891 C70.8543601,9.15869314 71.4824182,10.1558229 71.4824182,11.5961263 C71.4824182,11.8915754 71.3716281,13.9596971 71.1868789,17.7266514 C71.0760888,19.7947657 71.002204,21.3827714 71.002204,22.5645829 L66.9752211,22.5645829 C67.0860854,21.4936057 67.2338551,20.3856343 67.3447195,19.3146571 C67.4186043,18.16984 67.4555096,16.8033543 67.4555096,15.1414863 C67.1968756,15.3631029 65.9408335,15.8431371 63.6871978,16.58176 C61.9508153,17.1357829 61.0641528,17.9113257 61.0641528,18.9084629 C61.0641528,19.4993314 61.3227571,19.94252 61.8399806,20.2379543 C62.2833119,20.4595486 62.8005353,20.5703086 63.4655359,20.5703086 C63.7980325,20.5703086 64.130529,20.5333886 64.4630256,20.4964686 C64.8693922,20.4595486 65.3127754,20.3487143 65.8299691,20.16404 Z M79.2370874,8.23563446 L79.0893103,10.5992046 C79.7173611,9.60207486 80.4931889,8.93732171 81.4168012,8.53108137 C82.3403689,8.12484251 83.4118103,7.903257 84.6679266,7.903257 C86.3303723,7.903257 87.5864886,8.23563446 88.4731808,8.90038686 C89.5076426,9.67593714 90.0248364,10.8577189 90.0248364,12.4457469 C90.0248364,12.9997103 89.9878568,13.9229777 89.913972,15.2894189 C89.7292971,18.6500971 89.6184327,21.08756 89.6184327,22.6017257 L85.3698695,22.6017257 C85.5545445,21.19832 85.7023141,19.7580686 85.8500838,18.2808229 C85.9609482,16.8035771 86.034833,15.4371657 86.034833,14.2184269 C86.034833,12.1502977 85.0003712,11.1162406 82.9684271,11.1162406 C81.89706,11.1162406 81.0473548,11.4855446 80.3454118,12.1872326 C79.6804186,12.8889206 79.2370874,13.7752531 79.0523605,14.8093177 C78.8306986,15.88028 78.7198639,17.1729257 78.6459717,18.7240114 C78.5720868,20.2750971 78.5351444,21.5676686 78.5351444,22.6386457 L74.4343212,22.6386457 C74.6559869,20.2011829 74.8407086,17.8376343 74.9884864,15.5479257 C75.1362635,13.2582246 75.1732081,10.8207914 75.1732081,8.309496 L79.2370874,8.23563446 Z M116.630354,3.3240737 L121.100571,3.3240737 C120.878917,5.909228 120.731147,8.34666114 120.583378,10.6363771 C120.435608,12.9260857 120.361723,14.6618457 120.361723,15.7697429 C120.361723,16.84072 120.213954,17.8009371 119.881435,18.6134 C119.364241,19.8690514 118.514528,20.8292686 117.332297,21.5309714 C115.780641,22.4172743 113.711718,22.8604629 111.088695,22.8604629 C108.170103,22.8604629 105.95344,22.2695943 104.438726,21.0508629 C103.108727,20.0168057 102.44372,18.6503943 102.44372,16.9884743 C102.44372,16.3976057 102.517611,15.06804 102.665388,13.0368457 C102.813166,11.0056514 102.924006,9.67617486 102.96095,9.04834914 C103.071783,6.98022743 103.145671,5.05982286 103.145671,3.28714272 L107.542045,3.28714272 C107.542045,4.24734514 107.468153,5.724576 107.320376,7.71884286 C106.987879,12.2613029 106.840102,14.7726057 106.840102,15.1788743 C106.840102,16.76688 107.209548,17.9117714 107.911491,18.6873143 C108.613427,19.4259371 109.758701,19.8321314 111.347329,19.8321314 C113.009775,19.8321314 114.228986,19.3520229 115.041719,18.39188 C115.743662,17.5055029 116.11316,16.2129314 116.11316,14.5140914 C116.11316,13.4800343 116.22395,11.1164857 116.482584,7.46032857 C116.556469,5.76151086 116.630354,4.35813486 116.630354,3.3240737 Z M127.819286,22.5645086 L123.792358,22.5645086 C123.792358,20.7918286 123.866246,18.7237143 123.977079,16.4340057 C124.087912,14.1073771 124.235692,11.8175943 124.383469,9.490988 C124.531247,7.16434457 124.568191,5.13315029 124.568191,3.32354286 L128.632064,3.32354286 C128.632064,4.72691143 128.558179,6.647316 128.410402,9.04782171 C128.262625,11.44832 128.151783,13.9965429 128.004006,16.6186057 C127.893178,19.2407429 127.819286,21.2350171 127.819286,22.5645086 Z M137.86812,8.19840914 L132.326535,14.5135714 C133.102363,15.6584629 134.025961,16.9879543 135.171213,18.53904 C136.501214,20.31172 137.461791,21.6412114 138.126754,22.5275886 L133.656462,22.5275886 C133.213153,21.7150514 132.54819,20.7179886 131.735383,19.4992571 C129.703453,16.5078457 128.558172,14.8459257 128.33651,14.4766514 C129.999,12.3716171 131.661498,10.2665383 133.324018,8.19840914 L137.86812,8.19840914 Z M144.079539,8.1984916 L144.005647,10.1558229 C144.522863,9.41720743 145.077029,8.82631657 145.705087,8.45700737 C146.333138,8.05076851 147.072031,7.866114 147.958708,7.866114 C148.328132,7.866114 148.586766,7.86611415 148.734536,7.90304498 C148.95619,7.97690623 149.10396,7.97690697 149.177845,7.97690697 L149.288709,11.337612 C149.067055,11.2637497 148.808421,11.1898874 148.549787,11.1160251 C148.291227,11.0421629 148.032593,11.0421629 147.737054,11.0421629 C146.739527,11.0421629 145.963699,11.337612 145.335641,11.9654377 C144.70759,12.5563286 144.301201,13.4057337 144.079539,14.4397983 C143.968705,14.882972 143.894813,15.6954571 143.82092,16.8033543 C143.747035,17.9482457 143.710093,19.2408171 143.710093,20.7549829 L143.710093,22.5276629 L139.683164,22.5276629 C139.683164,21.2350914 139.720104,19.8316857 139.793993,18.39136 C139.867882,16.9141886 139.941775,15.2892109 140.052608,13.479596 C140.163441,11.6699886 140.200383,9.89730857 140.200383,8.235422 L144.079539,8.1984916 Z M158.746635,20.16404 L158.007787,22.6384229 C157.121087,22.8230971 156.234418,22.8969371 155.347755,22.8969371 C153.315818,22.8969371 151.874983,22.3799086 151.025263,21.3458514 C150.4711,20.6810686 150.17555,19.8316857 150.17555,18.8345486 C150.17555,17.1727029 151.06222,15.9170514 152.798602,15.1045514 C153.204984,14.9198994 154.830532,14.4397983 157.712174,13.664248 C159.485484,13.1841543 160.372176,12.5563286 160.372176,11.7438509 C160.372176,11.1529526 160.113542,10.7467137 159.596348,10.4881994 C159.079154,10.26662 158.451096,10.1558229 157.749153,10.1558229 C156.862476,10.1558229 155.938863,10.26662 154.978316,10.4881994 C154.017761,10.7097863 153.057214,11.0052354 152.096659,11.3745394 L152.539983,8.678592 C153.53748,8.45700737 154.57192,8.235422 155.643309,8.08769891 C156.714691,7.93997575 157.749153,7.866114 158.746635,7.866114 C160.372176,7.866114 161.628292,8.08769966 162.514984,8.53086891 C163.771026,9.15869314 164.399084,10.1558229 164.399084,11.5961263 C164.399084,11.8915754 164.288294,13.9596971 164.103545,17.7266514 C163.992755,19.7947657 163.91887,21.3827714 163.91887,22.5645829 L159.891887,22.5645829 C160.002752,21.4936057 160.150521,20.3856343 160.261311,19.3146571 C160.33527,18.16984 160.372176,16.8033543 160.372176,15.1414863 C160.113542,15.3631029 158.8575,15.8431371 156.603864,16.58176 C154.867481,17.1357829 153.980812,17.9113257 153.980812,18.9084629 C153.980812,19.4993314 154.239423,19.94252 154.756647,20.2379543 C155.199978,20.4595486 155.717194,20.5703086 156.382195,20.5703086 C156.714691,20.5703086 157.047195,20.5333886 157.379692,20.4964686 C157.786058,20.4595486 158.192462,20.3487143 158.746635,20.16404 Z M167.978862,8.235344 L172.153568,8.235344 C171.968848,10.2296034 171.858006,12.4085371 171.747179,14.8459257 C171.636344,17.2833886 171.599402,19.8316114 171.599402,22.5645086 L167.313857,22.5645086 C167.757189,17.9850914 167.978862,13.18408 167.978862,8.235344 Z M172.153568,5.79791086 L168.089687,5.79791086 L168.126637,3.06502864 L172.301345,3.06502864 L172.153568,5.79791086 Z M179.987773,8.1984916 L179.839988,10.5620617 C180.468039,9.564932 181.243882,8.90017886 182.167487,8.49393777 C183.091129,8.08769891 184.162496,7.866114 185.418612,7.866114 C187.081058,7.866114 188.337174,8.1984916 189.223866,8.863244 C190.258328,9.63879429 190.775522,10.820576 190.775522,12.408604 C190.775522,12.9625674 190.738542,13.8858349 190.664657,15.252276 C190.479982,18.6129543 190.369118,21.0504171 190.369118,22.5645829 L186.120555,22.5645829 C186.30523,21.1611771 186.453,19.7209257 186.600843,18.24368 C186.711634,16.7664343 186.785518,15.4000229 186.785518,14.181284 C186.785518,12.1131623 185.751057,11.0790977 183.719112,11.0790977 C182.647745,11.0790977 181.798048,11.4484017 181.096105,12.1500897 C180.431104,12.8517777 179.987773,13.7381103 179.803053,14.7721749 C179.581384,15.8431371 179.470549,17.1357829 179.396665,18.6868686 C179.322772,20.2379543 179.285822,21.5305257 179.285822,22.6015029 L175.185011,22.6015029 C175.406677,20.16404 175.591398,17.8004914 175.739176,15.5107829 C175.886953,13.2210817 175.923898,10.7836486 175.923898,8.27235314 L179.987773,8.1984916 Z M207.734428,15.5477029 L197.390011,15.5477029 L197.390011,16.0278114 C197.390011,17.3573029 197.7964,18.39136 198.60917,19.1299829 C199.421947,19.8686057 200.493337,20.2379543 201.823345,20.2379543 C202.709963,20.2379543 203.70752,20.0902 204.815866,19.8316857 C205.222196,19.7209257 205.813349,19.5731714 206.589176,19.3146571 L206.071908,22.3429886 C205.296081,22.4907429 204.520253,22.6384229 203.744425,22.7123371 C202.931692,22.8230971 202.155864,22.8600171 201.416942,22.8600171 C198.202796,22.8600171 195.91224,21.93672 194.619189,20.12712 C193.806412,18.9823029 193.40003,17.5788971 193.40003,15.8801314 C193.40003,13.9227697 193.843353,12.2608794 194.730016,10.8944383 C196.06001,8.863244 198.202781,7.866114 201.195287,7.866114 C203.227231,7.866114 204.852772,8.38314509 206.071908,9.38028 C207.291119,10.4143371 207.919178,11.8915754 207.919178,13.8858349 C207.882198,14.4767257 207.845293,15.0306891 207.734428,15.5477029 Z M197.500838,13.6273206 L204.076944,13.6273206 C204.076944,12.4824663 203.855289,11.6330537 203.411906,11.0790977 C202.968597,10.5251343 202.192769,10.26662 201.121402,10.26662 C200.160855,10.26662 199.348077,10.5989966 198.720019,11.2268149 C198.018084,11.8546406 197.611673,12.6671183 197.500838,13.6273206 Z" id="Combined-Shape"></path>
                    </g>
                </g>
            </g>
        </g>
    </g>
</svg>